<svg fill="none" height="19" viewBox="0 0 177 19" width="177" xmlns="http://www.w3.org/2000/svg" xmlns:xlink="http://www.w3.org/1999/xlink"><mask id="a" fill="#fff"><path d="m22.9815.905146c1.8119 0 3.3248.539494 4.5386 1.618494 1.2138 1.07878 1.8206 2.43339 1.8206 4.06382 0 1.62225-.6068 2.97288-1.8206 4.05184-1.2138 1.0788-2.7267 1.6183-4.5386 1.6183h-3.8232v5.838h-3.0689v-17.190454zm-.143 8.679264c.9883 0 1.7989-.28378 2.4319-.8511.6416-.56755.9623-1.28283.9623-2.14585 0-.86325-.3207-1.57854-.9623-2.14586-.633-.56733-1.4436-.8511-2.4319-.8511h-3.6802v5.99391z" fill="#fff"></path><path d="m38.0285 4.46955c1.6966 0 3.0371.50601 4.0217 1.51803.9932 1.00404 1.4898 2.36538 1.4898 4.08402v8.0236h-2.993v-7.4694c0-1.21266-.2814-2.13235-.8439-2.75887-.5625-.6263-1.3976-.93967-2.5051-.93967-1.1341 0-2.0703.3775-2.8085 1.13252-.7384.75503-1.1075 1.72267-1.1075 2.90332v7.1321h-2.9933v-18.0952h2.9933v6.28875c.5711-.57814 1.2657-1.02401 2.0832-1.33716.8175-.32136 1.7053-.48204 2.6633-.48204z" fill="#fff"></path><path d="m59.631 11.7992c0 .2662-.021.5741-.0629.9235h-11.2628c.1755 1.115.6438 1.9969 1.4048 2.6456.7608.649 1.7099.9736 2.8471.9736.8193 0 1.5509-.1791 2.1947-.5368.6523-.3577 1.1623-.8527 1.5303-1.4849h3.01c-.5517 1.4559-1.4256 2.5999-2.6213 3.4319-1.1956.832-2.5669 1.2478-4.1137 1.2478-2.0236 0-3.7168-.6906-5.0797-2.0715-1.3629-1.3895-2.0444-3.1116-2.0444-5.1667 0-1.3559.3094-2.58718.9282-3.69389.6187-1.10648 1.4716-1.97158 2.5586-2.59574 1.087-.63221 2.2995-.94831 3.6373-.94831 1.3795 0 2.6129.32852 3.6999.98578 1.087.64899 1.9189 1.52673 2.4959 2.63321.5853 1.0982.878 2.31705.878 3.65645zm-7.0738-4.71718c-1.062 0-1.965.29955-2.7092.89843-.7441.5991-1.2334 1.41452-1.4675 2.44605h8.3907c-.2592-1.04831-.7649-1.86764-1.5175-2.45847-.7441-.5906-1.643-.88601-2.6965-.88601z" fill="#fff"></path><path d="m69.2385 4.52412c1.6878 0 3.0329.51615 4.035 1.54802 1.002 1.03186 1.5029 2.37585 1.5029 4.03176v7.9916h-2.993v-7.4397c0-1.20777-.2857-2.1238-.8571-2.74783-.5625-.62381-1.3932-.93593-2.4919-.93593-1.1427 0-2.0835.37998-2.8216 1.13995-.7296.75202-1.0944 1.71205-1.0944 2.87991v7.1036h-2.9933v-13.27142h2.0835l.5932 1.84799c.5625-.67995 1.2791-1.20782 2.1491-1.58383.8703-.37601 1.8328-.56412 2.8876-.56412z" fill="#fff"></path><path d="m87.8773 18.0644c-1.2251.6239-2.5955.9359-4.1112.9359s-2.886-.312-4.1112-.9359c-1.2251-.6324-2.1872-1.4975-2.886-2.5957-.6989-1.1065-1.0483-2.3422-1.0483-3.7066 0-1.3727.3494-2.60815 1.0483-3.70635.6988-1.10648 1.6609-1.97181 2.886-2.59574 1.2252-.62393 2.5955-.93589 4.1112-.93589s2.8861.31196 4.1112.93589c1.2254.62393 2.1872 1.48926 2.886 2.59574.6989 1.10648 1.0483 2.34195 1.0483 3.70635s-.3494 2.6001-1.0483 3.7066c-.6988 1.0982-1.6606 1.9633-2.886 2.5957zm-7.6369-3.0452c.9257.8488 2.1009 1.2729 3.5257 1.2729s2.5955-.4241 3.5124-1.2729c.9257-.8485 1.3884-1.9343 1.3884-3.2571s-.4627-2.40838-1.3884-3.25714c-.9169-.84854-2.0876-1.27292-3.5124-1.27292s-2.6.42438-3.5257 1.27292c-.9168.84876-1.3751 1.93434-1.3751 3.25714s.4583 2.4086 1.3751 3.2571z" fill="#fff"></path><path d="m109.298 4.52376c1.552 0 2.81.48012 3.773 1.43993.972.96002 1.458 2.19193 1.458 3.69596v8.43555h-3.037v-7.7635c0-1.07214-.25-1.89997-.749-2.48399-.5-.58402-1.209-.87603-2.128-.87603-.99 0-1.819.36407-2.489 1.09199-.66.72792-.99 1.65191-.99 2.77193v7.2596h-2.97v-7.7635c0-1.07214-.25-1.89997-.75-2.48399-.49-.58402-1.199-.87603-2.127-.87603-.9901 0-1.8197.36407-2.4888 1.09199-.6689.72792-1.0035 1.65191-1.0035 2.77193v7.2596h-3.0374v-13.27148h2.1542l.522 1.71602c.5621-.63199 1.2443-1.12404 2.0472-1.47595.8118-.35988 1.6636-.54003 2.5553-.54003.991 0 1.869.20801 2.636.62403.776.40806 1.378.97593 1.807 1.70385.544-.71996 1.239-1.28784 2.087-1.70385.847-.41602 1.757-.62403 2.73-.62403z" fill="#fff"></path><path d="m130.619 11.7996c0 .2662-.022.574-.067.9235h-12.014c.188 1.1149.687 1.9968 1.499 2.6456.812.649 1.824.9736 3.037.9736.874 0 1.654-.1791 2.341-.5368.696-.3577 1.24-.8527 1.632-1.4849h3.211c-.589 1.4559-1.521 2.5999-2.796 3.4318-1.275.832-2.738 1.2479-4.388 1.2479-2.159 0-3.965-.6906-5.419-2.0716-1.453-1.3894-2.18-3.1116-2.18-5.1666 0-1.3559.33-2.58723.99-3.69394.66-1.10647 1.57-1.97157 2.729-2.59573 1.16-.63221 2.453-.94831 3.88-.94831 1.471 0 2.787.32851 3.947.98578 1.159.64899 2.046 1.52673 2.662 2.63321.624 1.0982.936 2.31709.936 3.65649zm-7.545-4.71723c-1.133 0-2.096.29956-2.89.89843-.794.59911-1.316 1.41453-1.565 2.4461h8.95c-.277-1.04835-.816-1.86769-1.619-2.45851-.793-.5906-1.752-.88602-2.876-.88602z" fill="#fff"></path><path d="m139.676 4.52376c1.567 0 2.816.51615 3.746 1.54802.931 1.03186 1.396 2.37585 1.396 4.03172v7.9917h-2.779v-7.4397c0-1.20783-.265-2.12386-.796-2.74789-.522-.6238-1.294-.93593-2.314-.93593-1.061 0-1.935.37998-2.62 1.13996-.677.75201-1.016 1.71204-1.016 2.87986v7.1037h-2.78v-13.27148h1.935l.551 1.84799c.522-.67995 1.187-1.20782 1.995-1.58383.809-.37601 1.702-.56412 2.682-.56412z" fill="#fff"></path><path d="m158.153 18.0641c-1.153.6239-2.443.9358-3.87.9358-1.426 0-2.716-.3119-3.869-.9358-1.153-.6325-2.059-1.4976-2.716-2.5958-.658-1.1065-.987-2.3421-.987-3.7066 0-1.3727.329-2.60811.987-3.70631.657-1.10648 1.563-1.9718 2.716-2.59574 1.153-.62393 2.443-.93589 3.869-.93589 1.427 0 2.717.31196 3.87.93589 1.153.62394 2.058 1.48926 2.716 2.59574s.987 2.34191.987 3.70631c0 1.3645-.329 2.6001-.987 3.7066-.658 1.0982-1.563 1.9633-2.716 2.5958zm-7.188-3.0452c.871.8487 1.977 1.2729 3.318 1.2729s2.443-.4242 3.306-1.2729c.871-.8486 1.307-1.9344 1.307-3.2572s-.436-2.40834-1.307-3.2571c-.863-.84854-1.965-1.27292-3.306-1.27292s-2.447.42438-3.318 1.27292c-.863.84876-1.294 1.9343-1.294 3.2571s.431 2.4086 1.294 3.2572z" fill="#fff"></path><path d="m171.463 4.52412c1.688 0 3.033.51615 4.035 1.54802 1.002 1.03186 1.503 2.37585 1.503 4.03176v7.9916h-2.993v-7.4397c0-1.20777-.286-2.1238-.857-2.74783-.563-.62381-1.393-.93593-2.492-.93593-1.143 0-2.083.37998-2.822 1.13995-.729.75202-1.094 1.71205-1.094 2.87991v7.1036h-2.993v-13.27142h2.083l.593 1.84799c.563-.67995 1.279-1.20782 2.15-1.58383.87-.37601 1.832-.56412 2.887-.56412z" fill="#fff"></path></mask><path d="m5.3363.826172h2.15537v3.291748l-.22455.91223.49793-.71555 2.45845-2.39821 1.5025 1.44837-2.44927 2.36226-.79016.44199.79016-.15044h3.54937v2.00365h-3.54937l-.79016-.17895.79016.46066 2.44857 2.36057-1.5027 1.4484-2.45755-2.36611-.49793-.72442.22455.72442v3.47071h-2.15537v-3.47071l.23422-.72442-.47834.72442-2.45847 2.37041-1.50248-1.4527 2.44855-2.36057.76068-.46066-.89795.17895h-3.44251v-2.00365h3.57978l.76139.15044-.76044-.44199-2.4495-2.36155 1.50248-1.44811 2.28298 2.20128.65383.91247-.23422-.91247z" fill="#f2751a"></path><g fill="#fffefd"><path d="m22.9815.905146c1.8119 0 3.3248.539494 4.5386 1.618494 1.2138 1.07878 1.8206 2.43339 1.8206 4.06382 0 1.62225-.6068 2.97288-1.8206 4.05184-1.2138 1.0788-2.7267 1.6183-4.5386 1.6183h-3.8232v5.838h-3.0689v-17.190454zm-.143 8.679264c.9883 0 1.7989-.28378 2.4319-.8511.6416-.56755.9623-1.28283.9623-2.14585 0-.86325-.3207-1.57854-.9623-2.14586-.633-.56733-1.4436-.8511-2.4319-.8511h-3.6802v5.99391z"></path><path d="m38.0285 4.46955c1.6966 0 3.0371.50601 4.0217 1.51803.9932 1.00404 1.4898 2.36538 1.4898 4.08402v8.0236h-2.993v-7.4694c0-1.21266-.2814-2.13235-.8439-2.75887-.5625-.6263-1.3976-.93967-2.5051-.93967-1.1341 0-2.0703.3775-2.8085 1.13252-.7384.75503-1.1075 1.72267-1.1075 2.90332v7.1321h-2.9933v-18.0952h2.9933v6.28875c.5711-.57814 1.2657-1.02401 2.0832-1.33716.8175-.32136 1.7053-.48204 2.6633-.48204z"></path><path d="m59.631 11.7992c0 .2662-.021.5741-.0629.9235h-11.2628c.1755 1.115.6438 1.9969 1.4048 2.6456.7608.649 1.7099.9736 2.8471.9736.8193 0 1.5509-.1791 2.1947-.5368.6523-.3577 1.1623-.8527 1.5303-1.4849h3.01c-.5517 1.4559-1.4256 2.5999-2.6213 3.4319-1.1956.832-2.5669 1.2478-4.1137 1.2478-2.0236 0-3.7168-.6906-5.0797-2.0715-1.3629-1.3895-2.0444-3.1116-2.0444-5.1667 0-1.3559.3094-2.58718.9282-3.69389.6187-1.10648 1.4716-1.97158 2.5586-2.59574 1.087-.63221 2.2995-.94831 3.6373-.94831 1.3795 0 2.6129.32852 3.6999.98578 1.087.64899 1.9189 1.52673 2.4959 2.63321.5853 1.0982.878 2.31705.878 3.65645zm-7.0738-4.71718c-1.062 0-1.965.29955-2.7092.89843-.7441.5991-1.2334 1.41452-1.4675 2.44605h8.3907c-.2592-1.04831-.7649-1.86764-1.5175-2.45847-.7441-.5906-1.643-.88601-2.6965-.88601z"></path><path d="m69.2385 4.52412c1.6878 0 3.0329.51615 4.035 1.54802 1.002 1.03186 1.5029 2.37585 1.5029 4.03176v7.9916h-2.993v-7.4397c0-1.20777-.2857-2.1238-.8571-2.74783-.5625-.62381-1.3932-.93593-2.4919-.93593-1.1427 0-2.0835.37998-2.8216 1.13995-.7296.75202-1.0944 1.71205-1.0944 2.87991v7.1036h-2.9933v-13.27142h2.0835l.5932 1.84799c.5625-.67995 1.2791-1.20782 2.1491-1.58383.8703-.37601 1.8328-.56412 2.8876-.56412z"></path><path d="m87.8773 18.0644c-1.2251.6239-2.5955.9359-4.1112.9359s-2.886-.312-4.1112-.9359c-1.2251-.6324-2.1872-1.4975-2.886-2.5957-.6989-1.1065-1.0483-2.3422-1.0483-3.7066 0-1.3727.3494-2.60815 1.0483-3.70635.6988-1.10648 1.6609-1.97181 2.886-2.59574 1.2252-.62393 2.5955-.93589 4.1112-.93589s2.8861.31196 4.1112.93589c1.2254.62393 2.1872 1.48926 2.886 2.59574.6989 1.10648 1.0483 2.34195 1.0483 3.70635s-.3494 2.6001-1.0483 3.7066c-.6988 1.0982-1.6606 1.9633-2.886 2.5957zm-7.6369-3.0452c.9257.8488 2.1009 1.2729 3.5257 1.2729s2.5955-.4241 3.5124-1.2729c.9257-.8485 1.3884-1.9343 1.3884-3.2571s-.4627-2.40838-1.3884-3.25714c-.9169-.84854-2.0876-1.27292-3.5124-1.27292s-2.6.42438-3.5257 1.27292c-.9168.84876-1.3751 1.93434-1.3751 3.25714s.4583 2.4086 1.3751 3.2571z"></path><path d="m109.298 4.52376c1.552 0 2.81.48012 3.773 1.43993.972.96002 1.458 2.19193 1.458 3.69596v8.43555h-3.037v-7.7635c0-1.07214-.25-1.89997-.749-2.48399-.5-.58402-1.209-.87603-2.128-.87603-.99 0-1.819.36407-2.489 1.09199-.66.72792-.99 1.65191-.99 2.77193v7.2596h-2.97v-7.7635c0-1.07214-.25-1.89997-.75-2.48399-.49-.58402-1.199-.87603-2.127-.87603-.9901 0-1.8197.36407-2.4888 1.09199-.6689.72792-1.0035 1.65191-1.0035 2.77193v7.2596h-3.0374v-13.27148h2.1542l.522 1.71602c.5621-.63199 1.2443-1.12404 2.0472-1.47595.8118-.35988 1.6636-.54003 2.5553-.54003.991 0 1.869.20801 2.636.62403.776.40806 1.378.97593 1.807 1.70385.544-.71996 1.239-1.28784 2.087-1.70385.847-.41602 1.757-.62403 2.73-.62403z"></path><path d="m130.619 11.7996c0 .2662-.022.574-.067.9235h-12.014c.188 1.1149.687 1.9968 1.499 2.6456.812.649 1.824.9736 3.037.9736.874 0 1.654-.1791 2.341-.5368.696-.3577 1.24-.8527 1.632-1.4849h3.211c-.589 1.4559-1.521 2.5999-2.796 3.4318-1.275.832-2.738 1.2479-4.388 1.2479-2.159 0-3.965-.6906-5.419-2.0716-1.453-1.3894-2.18-3.1116-2.18-5.1666 0-1.3559.33-2.58723.99-3.69394.66-1.10647 1.57-1.97157 2.729-2.59573 1.16-.63221 2.453-.94831 3.88-.94831 1.471 0 2.787.32851 3.947.98578 1.159.64899 2.046 1.52673 2.662 2.63321.624 1.0982.936 2.31709.936 3.65649zm-7.545-4.71723c-1.133 0-2.096.29956-2.89.89843-.794.59911-1.316 1.41453-1.565 2.4461h8.95c-.277-1.04835-.816-1.86769-1.619-2.45851-.793-.5906-1.752-.88602-2.876-.88602z"></path><path d="m139.676 4.52376c1.567 0 2.816.51615 3.746 1.54802.931 1.03186 1.396 2.37585 1.396 4.03172v7.9917h-2.779v-7.4397c0-1.20783-.265-2.12386-.796-2.74789-.522-.6238-1.294-.93593-2.314-.93593-1.061 0-1.935.37998-2.62 1.13996-.677.75201-1.016 1.71204-1.016 2.87986v7.1037h-2.78v-13.27148h1.935l.551 1.84799c.522-.67995 1.187-1.20782 1.995-1.58383.809-.37601 1.702-.56412 2.682-.56412z"></path><path d="m158.153 18.0641c-1.153.6239-2.443.9358-3.87.9358-1.426 0-2.716-.3119-3.869-.9358-1.153-.6325-2.059-1.4976-2.716-2.5958-.658-1.1065-.987-2.3421-.987-3.7066 0-1.3727.329-2.60811.987-3.70631.657-1.10648 1.563-1.9718 2.716-2.59574 1.153-.62393 2.443-.93589 3.869-.93589 1.427 0 2.717.31196 3.87.93589 1.153.62394 2.058 1.48926 2.716 2.59574s.987 2.34191.987 3.70631c0 1.3645-.329 2.6001-.987 3.7066-.658 1.0982-1.563 1.9633-2.716 2.5958zm-7.188-3.0452c.871.8487 1.977 1.2729 3.318 1.2729s2.443-.4242 3.306-1.2729c.871-.8486 1.307-1.9344 1.307-3.2572s-.436-2.40834-1.307-3.2571c-.863-.84854-1.965-1.27292-3.306-1.27292s-2.447.42438-3.318 1.27292c-.863.84876-1.294 1.9343-1.294 3.2571s.431 2.4086 1.294 3.2572z"></path><path d="m171.463 4.52412c1.688 0 3.033.51615 4.035 1.54802 1.002 1.03186 1.503 2.37585 1.503 4.03176v7.9916h-2.993v-7.4397c0-1.20777-.286-2.1238-.857-2.74783-.563-.62381-1.393-.93593-2.492-.93593-1.143 0-2.083.37998-2.822 1.13995-.729.75202-1.094 1.71205-1.094 2.87991v7.1036h-2.993v-13.27142h2.083l.593 1.84799c.563-.67995 1.279-1.20782 2.15-1.58383.87-.37601 1.832-.56412 2.887-.56412z"></path></g><path d="m22.9815.905146c1.8119 0 3.3248.539494 4.5386 1.618494 1.2138 1.07878 1.8206 2.43339 1.8206 4.06382 0 1.62225-.6068 2.97288-1.8206 4.05184-1.2138 1.0788-2.7267 1.6183-4.5386 1.6183h-3.8232v5.838h-3.0689v-17.190454zm-.143 8.679264c.9883 0 1.7989-.28378 2.4319-.8511.6416-.56755.9623-1.28283.9623-2.14585 0-.86325-.3207-1.57854-.9623-2.14586-.633-.56733-1.4436-.8511-2.4319-.8511h-3.6802v5.99391z" mask="url(#a)" stroke="#fffefd" stroke-width="2"></path><path d="m38.0285 4.46955c1.6966 0 3.0371.50601 4.0217 1.51803.9932 1.00404 1.4898 2.36538 1.4898 4.08402v8.0236h-2.993v-7.4694c0-1.21266-.2814-2.13235-.8439-2.75887-.5625-.6263-1.3976-.93967-2.5051-.93967-1.1341 0-2.0703.3775-2.8085 1.13252-.7384.75503-1.1075 1.72267-1.1075 2.90332v7.1321h-2.9933v-18.0952h2.9933v6.28875c.5711-.57814 1.2657-1.02401 2.0832-1.33716.8175-.32136 1.7053-.48204 2.6633-.48204z" mask="url(#a)" stroke="#fffefd" stroke-width="2"></path><path d="m59.631 11.7992c0 .2662-.021.5741-.0629.9235h-11.2628c.1755 1.115.6438 1.9969 1.4048 2.6456.7608.649 1.7099.9736 2.8471.9736.8193 0 1.5509-.1791 2.1947-.5368.6523-.3577 1.1623-.8527 1.5303-1.4849h3.01c-.5517 1.4559-1.4256 2.5999-2.6213 3.4319-1.1956.832-2.5669 1.2478-4.1137 1.2478-2.0236 0-3.7168-.6906-5.0797-2.0715-1.3629-1.3895-2.0444-3.1116-2.0444-5.1667 0-1.3559.3094-2.58718.9282-3.69389.6187-1.10648 1.4716-1.97158 2.5586-2.59574 1.087-.63221 2.2995-.94831 3.6373-.94831 1.3795 0 2.6129.32852 3.6999.98578 1.087.64899 1.9189 1.52673 2.4959 2.63321.5853 1.0982.878 2.31705.878 3.65645zm-7.0738-4.71718c-1.062 0-1.965.29955-2.7092.89843-.7441.5991-1.2334 1.41452-1.4675 2.44605h8.3907c-.2592-1.04831-.7649-1.86764-1.5175-2.45847-.7441-.5906-1.643-.88601-2.6965-.88601z" mask="url(#a)" stroke="#fffefd" stroke-width="2"></path><path d="m69.2385 4.52412c1.6878 0 3.0329.51615 4.035 1.54802 1.002 1.03186 1.5029 2.37585 1.5029 4.03176v7.9916h-2.993v-7.4397c0-1.20777-.2857-2.1238-.8571-2.74783-.5625-.62381-1.3932-.93593-2.4919-.93593-1.1427 0-2.0835.37998-2.8216 1.13995-.7296.75202-1.0944 1.71205-1.0944 2.87991v7.1036h-2.9933v-13.27142h2.0835l.5932 1.84799c.5625-.67995 1.2791-1.20782 2.1491-1.58383.8703-.37601 1.8328-.56412 2.8876-.56412z" mask="url(#a)" stroke="#fffefd" stroke-width="2"></path><path d="m87.8773 18.0644c-1.2251.6239-2.5955.9359-4.1112.9359s-2.886-.312-4.1112-.9359c-1.2251-.6324-2.1872-1.4975-2.886-2.5957-.6989-1.1065-1.0483-2.3422-1.0483-3.7066 0-1.3727.3494-2.60815 1.0483-3.70635.6988-1.10648 1.6609-1.97181 2.886-2.59574 1.2252-.62393 2.5955-.93589 4.1112-.93589s2.8861.31196 4.1112.93589c1.2254.62393 2.1872 1.48926 2.886 2.59574.6989 1.10648 1.0483 2.34195 1.0483 3.70635s-.3494 2.6001-1.0483 3.7066c-.6988 1.0982-1.6606 1.9633-2.886 2.5957zm-7.6369-3.0452c.9257.8488 2.1009 1.2729 3.5257 1.2729s2.5955-.4241 3.5124-1.2729c.9257-.8485 1.3884-1.9343 1.3884-3.2571s-.4627-2.40838-1.3884-3.25714c-.9169-.84854-2.0876-1.27292-3.5124-1.27292s-2.6.42438-3.5257 1.27292c-.9168.84876-1.3751 1.93434-1.3751 3.25714s.4583 2.4086 1.3751 3.2571z" mask="url(#a)" stroke="#fffefd" stroke-width="2"></path><path d="m109.298 4.52376c1.552 0 2.81.48012 3.773 1.43993.972.96002 1.458 2.19193 1.458 3.69596v8.43555h-3.037v-7.7635c0-1.07214-.25-1.89997-.749-2.48399-.5-.58402-1.209-.87603-2.128-.87603-.99 0-1.819.36407-2.489 1.09199-.66.72792-.99 1.65191-.99 2.77193v7.2596h-2.97v-7.7635c0-1.07214-.25-1.89997-.75-2.48399-.49-.58402-1.199-.87603-2.127-.87603-.9901 0-1.8197.36407-2.4888 1.09199-.6689.72792-1.0035 1.65191-1.0035 2.77193v7.2596h-3.0374v-13.27148h2.1542l.522 1.71602c.5621-.63199 1.2443-1.12404 2.0472-1.47595.8118-.35988 1.6636-.54003 2.5553-.54003.991 0 1.869.20801 2.636.62403.776.40806 1.378.97593 1.807 1.70385.544-.71996 1.239-1.28784 2.087-1.70385.847-.41602 1.757-.62403 2.73-.62403z" mask="url(#a)" stroke="#fffefd" stroke-width="2"></path><path d="m130.619 11.7996c0 .2662-.022.574-.067.9235h-12.014c.188 1.1149.687 1.9968 1.499 2.6456.812.649 1.824.9736 3.037.9736.874 0 1.654-.1791 2.341-.5368.696-.3577 1.24-.8527 1.632-1.4849h3.211c-.589 1.4559-1.521 2.5999-2.796 3.4318-1.275.832-2.738 1.2479-4.388 1.2479-2.159 0-3.965-.6906-5.419-2.0716-1.453-1.3894-2.18-3.1116-2.18-5.1666 0-1.3559.33-2.58723.99-3.69394.66-1.10647 1.57-1.97157 2.729-2.59573 1.16-.63221 2.453-.94831 3.88-.94831 1.471 0 2.787.32851 3.947.98578 1.159.64899 2.046 1.52673 2.662 2.63321.624 1.0982.936 2.31709.936 3.65649zm-7.545-4.71723c-1.133 0-2.096.29956-2.89.89843-.794.59911-1.316 1.41453-1.565 2.4461h8.95c-.277-1.04835-.816-1.86769-1.619-2.45851-.793-.5906-1.752-.88602-2.876-.88602z" mask="url(#a)" stroke="#fffefd" stroke-width="2"></path><path d="m139.676 4.52376c1.567 0 2.816.51615 3.746 1.54802.931 1.03186 1.396 2.37585 1.396 4.03172v7.9917h-2.779v-7.4397c0-1.20783-.265-2.12386-.796-2.74789-.522-.6238-1.294-.93593-2.314-.93593-1.061 0-1.935.37998-2.62 1.13996-.677.75201-1.016 1.71204-1.016 2.87986v7.1037h-2.78v-13.27148h1.935l.551 1.84799c.522-.67995 1.187-1.20782 1.995-1.58383.809-.37601 1.702-.56412 2.682-.56412z" mask="url(#a)" stroke="#fffefd" stroke-width="2"></path><path d="m158.153 18.0641c-1.153.6239-2.443.9358-3.87.9358-1.426 0-2.716-.3119-3.869-.9358-1.153-.6325-2.059-1.4976-2.716-2.5958-.658-1.1065-.987-2.3421-.987-3.7066 0-1.3727.329-2.60811.987-3.70631.657-1.10648 1.563-1.9718 2.716-2.59574 1.153-.62393 2.443-.93589 3.869-.93589 1.427 0 2.717.31196 3.87.93589 1.153.62394 2.058 1.48926 2.716 2.59574s.987 2.34191.987 3.70631c0 1.3645-.329 2.6001-.987 3.7066-.658 1.0982-1.563 1.9633-2.716 2.5958zm-7.188-3.0452c.871.8487 1.977 1.2729 3.318 1.2729s2.443-.4242 3.306-1.2729c.871-.8486 1.307-1.9344 1.307-3.2572s-.436-2.40834-1.307-3.2571c-.863-.84854-1.965-1.27292-3.306-1.27292s-2.447.42438-3.318 1.27292c-.863.84876-1.294 1.9343-1.294 3.2571s.431 2.4086 1.294 3.2572z" mask="url(#a)" stroke="#fffefd" stroke-width="2"></path><path d="m171.463 4.52412c1.688 0 3.033.51615 4.035 1.54802 1.002 1.03186 1.503 2.37585 1.503 4.03176v7.9916h-2.993v-7.4397c0-1.20777-.286-2.1238-.857-2.74783-.563-.62381-1.393-.93593-2.492-.93593-1.143 0-2.083.37998-2.822 1.13995-.729.75202-1.094 1.71205-1.094 2.87991v7.1036h-2.993v-13.27142h2.083l.593 1.84799c.563-.67995 1.279-1.20782 2.15-1.58383.87-.37601 1.832-.56412 2.887-.56412z" mask="url(#a)" stroke="#fffefd" stroke-width="2"></path></svg>